<svg id="Layer_1" data-name="Layer 1" xmlns="http://www.w3.org/2000/svg" viewBox="0 0 200.72 196.72"><defs><style>.cls-1{fill:#fc0d1b;}.cls-2{fill:#b5ddf1;}.cls-3{fill:#fff;}</style></defs><path d="M197.36,65.41l-2.49-.4c.49-6.52.59-13.56.6-16.3a5,5,0,0,0-4.72-5l-4.6-.24h-.27a5.06,5.06,0,0,0-2.17.52A5,5,0,0,0,179,40.66h0l-4.39,0a5,5,0,0,0-4.92,5.35,73.47,73.47,0,0,1-.52,14.85l-.75-.12c.19-6.24-.05-19.19-4.34-30.54a4,4,0,0,0-3.73-2.58h-1.42a118,118,0,0,0-1.11-13,5,5,0,0,0-4.93-4.29h-.17l-3.48.12a5,5,0,0,0-2.11.56c-.33-3.22-.71-5.64-.92-6.88A5,5,0,0,0,141.28,0a5.12,5.12,0,0,0-.87.08l-4.29.75a5,5,0,0,0-4.06,5.68,119.42,119.42,0,0,1,1.16,21.15H128a32.57,32.57,0,0,0-6.32-9.48,10.63,10.63,0,0,0-11.54-2.37c-19.24,7.75-31.6,35.92-31.6,35.92C64.73,46.88,50,56.28,50,56.28c-18.2-23.07-26.38-27-33.09-28.48-5.47-1.19-7,4.56-6.38,6.82l4.28,15a190.72,190.72,0,0,1,5.59,26c1.72,12.11.64,9.85-.77,13.46a110.44,110.44,0,0,0-8.24,26c-3.53.28-7.51,1.3-10,4.21,0,0-3.94,6.15,1.41,2.24a15.06,15.06,0,0,1,8-2.86c-.18,1.46-.31,2.89-.39,4.25-1.76.31-6.28,1.52-7.87,6.13,0,0-1.3,5.51,1,1.48,2.14-3.71,5.07-4.33,6.75-4.34,0,.89,0,1.75.05,2.59a11.51,11.51,0,0,0-4.7,6s-1.75,7.43,1.37,2a12.4,12.4,0,0,1,3.63-4.1c2.46,20.51,16.55,27.11,16.55,27.11a54.74,54.74,0,0,0,8,3.68c8.39,13.9,26,33,59.37,33.27,22.66.17,50.15-9.92,70.89-32.42,16.24-16.3,35.15-45.82,35.15-94.94A4,4,0,0,0,197.36,65.41Z"/><path class="cls-1" d="M129.6,31.65c2.87,8.21,4.7,20.13,3.43,37.38,0,0,13.86,13.8,3.66,45a69.09,69.09,0,0,1-4.37,10.4,71.62,71.62,0,0,0,19.24-23.19c9.87-21.69,12.28-33.84,12.8-39.33h0a77.31,77.31,0,0,0-3.43-28.57,2.52,2.52,0,0,0-2.4-1.69h-3.64a103.51,103.51,0,0,0-1-16,1.52,1.52,0,0,0-1.56-1.31l-2.46.08a1.51,1.51,0,0,0-1.46,1.63c.41,4.82.28,11.87.17,15.6H143.5a116.11,116.11,0,0,0-1.16-26.32,1.49,1.49,0,0,0-1.75-1.23l-3.28.57a1.52,1.52,0,0,0-1.23,1.73A126.8,126.8,0,0,1,137,31.65Z"/><path class="cls-1" d="M194.57,69l-4-.65c.75-6.81.89-15.73.92-19.17A1.5,1.5,0,0,0,190,47.67l-3.54-.19a1.52,1.52,0,0,0-1.59,1.58,98,98,0,0,1-1.37,18.18l-4.29-.68A69.79,69.79,0,0,0,180.06,46a1.52,1.52,0,0,0-1.52-1.34l-3.36,0a1.52,1.52,0,0,0-1.49,1.63,80.58,80.58,0,0,1-1.22,19.16L167,64.6c-2.32,9.82-7.29,27.31-15.12,40.14-9.53,16.47-21.28,23.35-21.8,23.65h0c-17.87,29.7-55.88,43.72-85.84,37.6,8.28,12.17,23.37,24.77,50.42,25,42.16.3,101-34.86,102-119.4A2.53,2.53,0,0,0,194.57,69Z"/><path class="cls-2" d="M160.93,33.34a2.52,2.52,0,0,0-2.4-1.69h-3.64a103.51,103.51,0,0,0-1-16,1.52,1.52,0,0,0-1.56-1.31l-2.46.08a1.51,1.51,0,0,0-1.46,1.63c.41,4.82.28,11.87.17,15.6H143.5a116.11,116.11,0,0,0-1.16-26.32,1.49,1.49,0,0,0-1.75-1.23l-3.28.57a1.52,1.52,0,0,0-1.23,1.73A126.8,126.8,0,0,1,137,31.65H129.6c2.87,8.21,4.7,20.12,3.43,37.38,0,0,13.86,13.8,3.66,45a69.74,69.74,0,0,1-4.42,10.44,71.68,71.68,0,0,0,19.29-23.23c9.87-21.69,12.28-33.84,12.8-39.33h0A77.31,77.31,0,0,0,160.93,33.34Z"/><ellipse class="cls-3" cx="28.7" cy="103.69" rx="4.01" ry="6.66"/><ellipse class="cls-3" cx="75.09" cy="104.35" rx="4.88" ry="8.1"/><path class="cls-3" d="M40.77,115.31l9.42-.24a2.5,2.5,0,0,1,2,4.13l-5.74,6.62a2.5,2.5,0,0,1-4-.38l-3.68-6.39A2.5,2.5,0,0,1,40.77,115.31Z"/><path class="cls-3" d="M182,78.88l6.52.86s-.24,8.61-1.86,11.78L180,90.66A105.83,105.83,0,0,0,182,78.88Z"/><path class="cls-3" d="M170.05,82.31l5.46.73a69.2,69.2,0,0,1-5,17.19l-6.88-.9S168.77,89.54,170.05,82.31Z"/><path class="cls-3" d="M160.34,108.09l6.83.75s-4.5,12-12.17,20.4l-8.33-1.69S153.1,122.44,160.34,108.09Z"/><path class="cls-3" d="M177.2,98.83l7.46,1a50.22,50.22,0,0,1-3.23,10.31l-8.68-1.24A66.68,66.68,0,0,0,177.2,98.83Z"/><path class="cls-3" d="M147.33,40.7h6.88s2.45,12.25,1.2,17.91l-6.82-1S148.6,46,147.33,40.7Z"/><path class="cls-3" d="M147.68,63.48l7.45,1.38a74.72,74.72,0,0,1-2.67,11.41c-1.38-.46-7.26-2.34-7.26-2.34A35.2,35.2,0,0,0,147.68,63.48Z"/><path class="cls-3" d="M97.6,124.72a9.35,9.35,0,0,1,6.81,5.89s1.3,5.51-1,1.48a6.4,6.4,0,0,0-7.57-3.36,2,2,0,0,1-1.75-.38h0a2.08,2.08,0,0,1,1-3.72A7.19,7.19,0,0,1,97.6,124.72Z"/><path class="cls-3" d="M102.1,138.42s1.76,7.43-1.36,2c-3.36-5.83-8.18-6-10.08-5.79a2,2,0,0,1-1.49-.46h0a2,2,0,0,1,1.43-3.42C94.61,131.08,99.84,132.69,102.1,138.42Z"/><path class="cls-3" d="M108.1,121.65s3.94,6.15-1.41,2.24c-6.14-4.48-13.11-2.62-15.21-1.9a2.15,2.15,0,0,1-1.35,0h0a2.24,2.24,0,0,1,0-4.29C95.57,116.09,103.4,115.28,108.1,121.65Z"/><path class="cls-3" d="M126.83,53.25c-.23-13.77-5.2-38.23-18.31-30.44C96.08,30.19,89.58,45.28,87.46,51.06a2.11,2.11,0,0,0,1.59,2.79c1.8.36,3.52.73,5.18,1.1,1.28-.53,2.63-1.93,2.72-5.42a.51.51,0,0,1,1-.26c.87,1.49,2.27,3.12,4.23,3.12,2.52,0,5.31-5.48,6.77-8.82a.51.51,0,0,1,1,.21c0,3.92.3,10.7,2.33,10.7a9.42,9.42,0,0,0,5.51-2.08.51.51,0,0,1,.79.59c-1,2.55-2.07,6.45-.6,8.68,2.65,1,4.7,1.79,6.16,2.43a2,2,0,0,0,2.8-1.84C126.88,59.85,126.88,56.42,126.83,53.25Z"/><path class="cls-3" d="M28.93,67c-.19-.45,0-.92.26-.65,1,1,2.18,1.68,3.12,1.48s-.22-6.87-1-10.71c-.11-.54.23-.78.44-.3,1.39,3.12,3.86,8.2,5.09,8,1-.2,1.32-1.93,1.44-3.48,0-.46.41-.34.52.16a16.1,16.1,0,0,0,1,3.08c1.56-1.29,2.56-2,2.56-2C37.43,50.52,25.44,40.22,19.09,34.83a1.59,1.59,0,0,0-2.5,1.79c7.17,19.13,9.24,32.07,10,39.51.13,1.16,1.53,1.3,2.2.34s1.39-1.94,2.09-2.84A28.7,28.7,0,0,0,28.93,67Z"/></svg>