<svg id="Layer_1" data-name="Layer 1" xmlns="http://www.w3.org/2000/svg" viewBox="0 0 426.75 98.6"><defs><style>.cls-1{fill:#fc0d1b;}.cls-2{fill:#000;}.cls-3{fill:#fff;}</style></defs><path class="cls-1" d="M175.55,33.6c2.46.87,3.68,2,3.68,3.51a10.61,10.61,0,0,1-.66,2.69L168,70.27a5.59,5.59,0,0,1-.38.94,5.38,5.38,0,0,1-1.46,1.45,4.76,4.76,0,0,1-5.6,0A4.76,4.76,0,0,1,159,70.88L152.6,51.94q-6.09,18-6.2,18.33a5,5,0,0,1-.5.94,6.25,6.25,0,0,1-.88,1.1,4.11,4.11,0,0,1-3,1.26,4.74,4.74,0,0,1-2.88-.82,4.63,4.63,0,0,1-1.51-1.65l-.38-.83L126.63,39.8a9.61,9.61,0,0,1-.6-2.69c0-1.46,1.22-2.62,3.67-3.46a9.19,9.19,0,0,1,2.89-.55,2.35,2.35,0,0,1,2,.88,8.48,8.48,0,0,1,1.24,2.69l6,18.34,6-18.06a5,5,0,0,1,2.8-3.19,5.71,5.71,0,0,1,2.28-.38,4.91,4.91,0,0,1,4.15,2.69l6.31,19,6-18.45c.3-.84.53-1.46.72-1.87a3.34,3.34,0,0,1,1-1.18,3,3,0,0,1,1.84-.57A7.53,7.53,0,0,1,175.55,33.6Z"/><path class="cls-1" d="M189.91,39.33a2.3,2.3,0,0,1-1.45,1.13,11.83,11.83,0,0,1-5.55,0,2.29,2.29,0,0,1-1.45-1.15,4.77,4.77,0,0,1-.5-1.46,17.15,17.15,0,0,1-.08-1.89,17.36,17.36,0,0,1,.08-1.9,4.61,4.61,0,0,1,.47-1.4c.51-1,1.94-1.48,4.28-1.48s3.7.49,4.17,1.48a4.43,4.43,0,0,1,.53,1.46,17.15,17.15,0,0,1,.08,1.89,17.36,17.36,0,0,1-.08,1.9A4.42,4.42,0,0,1,189.91,39.33Zm-9,10.19a17.15,17.15,0,0,1,.08-1.89,5.1,5.1,0,0,1,.47-1.46c.51-1,1.94-1.43,4.28-1.43a5.73,5.73,0,0,1,3.73.94,3,3,0,0,1,1,2.36,15.59,15.59,0,0,1,.06,1.59V68.85a17.15,17.15,0,0,1-.08,1.89,4.43,4.43,0,0,1-.53,1.46c-.47,1-1.88,1.42-4.22,1.42s-3.72-.49-4.23-1.48a5.14,5.14,0,0,1-.47-1.43,17,17,0,0,1-.08-1.92Z"/><path class="cls-1" d="M211,44.69a11.6,11.6,0,0,1,9.14,4.2,15.08,15.08,0,0,1,3.65,10.24v9.66a17.36,17.36,0,0,1-.08,1.9,4.61,4.61,0,0,1-.47,1.4c-.51,1-1.94,1.48-4.28,1.48q-3.9,0-4.5-2a8.94,8.94,0,0,1-.33-2.8V59.07a4.68,4.68,0,0,0-1.29-3.51,4.75,4.75,0,0,0-3.46-1.26,4.85,4.85,0,0,0-3.52,1.31,4.66,4.66,0,0,0-1.34,3.46v9.72a17.36,17.36,0,0,1-.08,1.9,4.12,4.12,0,0,1-.52,1.4c-.48,1-1.89,1.48-4.23,1.48s-3.72-.49-4.23-1.48a5.19,5.19,0,0,1-.47-1.46,17.15,17.15,0,0,1-.08-1.89V49.3a16.62,16.62,0,0,1,.08-1.84,4,4,0,0,1,.52-1.4c.52-.91,1.93-1.37,4.23-1.37s3.61.42,4.12,1.26a4.31,4.31,0,0,1,.55,2.25,5.44,5.44,0,0,1,1-1.1A9.46,9.46,0,0,1,206.85,46,7.2,7.2,0,0,1,211,44.69Z"/><path class="cls-1" d="M246.47,32.63a2.29,2.29,0,0,1,1.45-1.12,11.83,11.83,0,0,1,5.55,0,2.29,2.29,0,0,1,1.45,1.15,4.77,4.77,0,0,1,.5,1.46A17.15,17.15,0,0,1,255.5,36V68.79a17.36,17.36,0,0,1-.08,1.9,4,4,0,0,1-.53,1.4q-.81,1.48-4.64,1.48T246,70.88a8.08,8.08,0,0,1-6.43,2.63q-4.94,0-9-4.31a14.46,14.46,0,0,1,0-20.12c2.72-2.89,5.72-4.34,9-4.34a7.72,7.72,0,0,1,6.32,2.75V36a17.36,17.36,0,0,1,.08-1.9A4.55,4.55,0,0,1,246.47,32.63Zm-8.93,29.85A4.62,4.62,0,0,0,241,64a4.36,4.36,0,0,0,3.38-1.48,4.75,4.75,0,0,0,1.34-3.27,5.06,5.06,0,0,0-1.29-3.32A4.29,4.29,0,0,0,241,54.35a4.43,4.43,0,0,0-3.52,1.51,5,5,0,0,0-1.31,3.32A4.66,4.66,0,0,0,237.54,62.48Z"/><path class="cls-1" d="M286,45q3.24,1.42,3.24,3.46a4,4,0,0,1-.44,1.86,9.73,9.73,0,0,0-.44.94L274,83.45c-.3.7-.54,1.23-.74,1.6a3.54,3.54,0,0,1-1,1,2.67,2.67,0,0,1-1.65.49,8.22,8.22,0,0,1-2.91-.82q-3.24-1.42-3.24-3.41c0-.87,1.76-5.07,5.27-12.57L258.79,51.39a6.21,6.21,0,0,1-1.1-2.69q0-1.77,3-3.52a6.43,6.43,0,0,1,2.91-1.1,3,3,0,0,1,1.7.44,3.39,3.39,0,0,1,1,.91q.3.47,3,5.11t5.19,8.64q.27-.87,3-6.78c1.79-3.93,2.75-6,2.88-6.28a5.88,5.88,0,0,1,.63-.94,2.38,2.38,0,0,1,2-.93A7.7,7.7,0,0,1,286,45Z"/><path class="cls-1" d="M323.36,53.42q8.4,8.07,11.92,12.13c1.21,1.36,1.81,2.5,1.81,3.43s-.73,2-2.2,3.3-2.66,1.89-3.59,1.89-2.06-.77-3.38-2.3L315.84,58.09v10.7a17,17,0,0,1-.08,1.92,4.57,4.57,0,0,1-.52,1.43c-.52,1-1.94,1.48-4.29,1.48q-3.84,0-4.5-2.08a8.64,8.64,0,0,1-.33-2.8V38.21a14.83,14.83,0,0,1,.09-1.9,4.13,4.13,0,0,1,.52-1.45c.51-1,1.94-1.48,4.28-1.48,2.56,0,4.08.67,4.56,2a11,11,0,0,1,.27,2.85V48.75q7.47-8.4,12.08-13.78c1.28-1.5,2.4-2.25,3.35-2.25s2.16.63,3.62,1.89,2.2,2.36,2.2,3.3a5.54,5.54,0,0,1-1.65,3.32q-3.18,3.68-9.88,10.1Z"/><path class="cls-1" d="M348.87,39.33a2.32,2.32,0,0,1-1.46,1.13,11.79,11.79,0,0,1-5.54,0,2.31,2.31,0,0,1-1.46-1.15,4.72,4.72,0,0,1-.49-1.46,15,15,0,0,1-.08-1.89,15.13,15.13,0,0,1,.08-1.9,4.35,4.35,0,0,1,.47-1.4c.51-1,1.93-1.48,4.28-1.48s3.69.49,4.17,1.48a4.38,4.38,0,0,1,.52,1.46,15,15,0,0,1,.08,1.89,15.13,15.13,0,0,1-.08,1.9A4.37,4.37,0,0,1,348.87,39.33Zm-9,10.19a15,15,0,0,1,.08-1.89,4.8,4.8,0,0,1,.47-1.46c.51-1,1.93-1.43,4.28-1.43a5.73,5.73,0,0,1,3.73.94,3,3,0,0,1,1,2.36c0,.36.05.89.05,1.59V68.85a15,15,0,0,1-.08,1.89,4.38,4.38,0,0,1-.52,1.46c-.48,1-1.88,1.42-4.23,1.42s-3.71-.49-4.22-1.48a4.83,4.83,0,0,1-.47-1.43,14.88,14.88,0,0,1-.08-1.92Z"/><path class="cls-1" d="M389.31,54.41l-3.57-.22v7.57a3.74,3.74,0,0,0,.47,2.15,2,2,0,0,0,1.75.65c.86,0,3.52,0,4,.09a3.44,3.44,0,0,1,1.4.52c.88.47,1.32,1.7,1.32,3.68,0,2.3-.52,3.71-1.54,4.23a5.08,5.08,0,0,1-1.45.46c-.43.06-3,.08-3.84.08-3.67,0-6.52-1-8.57-2.85s-3.08-4.72-3.08-8.46V54.19c-1.75.14-3.22.22-4.39.22l-5-.22v7.57a3.84,3.84,0,0,0,.46,2.15,2,2,0,0,0,1.76.65,16.4,16.4,0,0,1,2,.09,3.87,3.87,0,0,1,1.45.52c.84.47,1.26,1.7,1.26,3.68q0,3.45-1.53,4.23a5.14,5.14,0,0,1-1.46.46,14.36,14.36,0,0,1-1.84.08q-5.49,0-8.56-2.85t-3.08-8.46V54.19a15.3,15.3,0,0,1-2.28.16,2.5,2.5,0,0,1-2-.93,5,5,0,0,1-.8-3.19,13.94,13.94,0,0,1,.27-3.26,3,3,0,0,1,.77-1.46,3.42,3.42,0,0,1,2.2-.71l1.81.22V39.36a16.6,16.6,0,0,1,.08-1.87,3.41,3.41,0,0,1,.53-1.31c.47-.92,1.88-1.38,4.22-1.38,2.49,0,4,.68,4.45,2a10.26,10.26,0,0,1,.28,2.8v5.21c1.72,0,3.34-.05,4.88-.05l4.5.05V39.36a14.09,14.09,0,0,1,.09-1.87,3.89,3.89,0,0,1,.46-1.31c.52-.92,1.94-1.38,4.29-1.38s4,.68,4.39,2a8.56,8.56,0,0,1,.33,2.8V45c1.61-.15,2.83-.22,3.65-.22a14.79,14.79,0,0,1,1.87.08,3.91,3.91,0,0,1,1.4.52c1,.48,1.48,1.89,1.48,4.23s-.49,3.71-1.48,4.23a5.14,5.14,0,0,1-1.46.46A14.54,14.54,0,0,1,389.31,54.41Z"/><path class="cls-1" d="M423.51,45q3.24,1.42,3.24,3.46a4.13,4.13,0,0,1-.43,1.86,7.43,7.43,0,0,0-.44.94L411.49,83.45c-.29.7-.54,1.23-.74,1.6a3.41,3.41,0,0,1-1,1,2.67,2.67,0,0,1-1.65.49,8.22,8.22,0,0,1-2.91-.82Q402,84.34,402,82.35c0-.87,1.76-5.07,5.27-12.57L396.34,51.39a6.08,6.08,0,0,1-1.1-2.69q0-1.77,3-3.52a6.51,6.51,0,0,1,2.91-1.1,3,3,0,0,1,1.7.44,3.58,3.58,0,0,1,1,.91c.2.31,1.2,2,3,5.11s3.54,6,5.18,8.64q.28-.87,3-6.78c1.79-3.93,2.75-6,2.88-6.28a5.88,5.88,0,0,1,.63-.94,2.4,2.4,0,0,1,2-.93A7.66,7.66,0,0,1,423.51,45Z"/><path d="M98.92,32.79l-1.25-.2c.25-3.27.3-6.8.3-8.17a2.49,2.49,0,0,0-2.36-2.51l-2.31-.12h-.13a2.44,2.44,0,0,0-1.09.27,2.51,2.51,0,0,0-2.35-1.67h0l-2.2,0a2.48,2.48,0,0,0-1.81.8A2.51,2.51,0,0,0,85,23.08a37.61,37.61,0,0,1-.26,7.44l-.37-.06c.09-3.13,0-9.61-2.18-15.3a2,2,0,0,0-1.87-1.3h-.71a60.08,60.08,0,0,0-.56-6.53,2.5,2.5,0,0,0-2.47-2.15h-.09l-1.74.06a2.46,2.46,0,0,0-1.06.28c-.16-1.62-.35-2.83-.46-3.45A2.48,2.48,0,0,0,70.81,0a2.09,2.09,0,0,0-.43,0L68.23.42a2.5,2.5,0,0,0-2,2.84,59.54,59.54,0,0,1,.58,10.6H64.15A16.33,16.33,0,0,0,61,9.11a5.3,5.3,0,0,0-5.78-1.18c-9.65,3.88-15.84,18-15.84,18-6.93-2.43-14.31,2.28-14.31,2.28C15.94,16.65,11.84,14.66,8.48,13.93c-2.75-.59-3.53,2.29-3.2,3.42l2.15,7.51a98.26,98.26,0,0,1,2.8,13c.86,6.07.31,4.93-.39,6.74a55,55,0,0,0-4.13,13,7.19,7.19,0,0,0-5,2.11s-2,3.08.71,1.12a7.54,7.54,0,0,1,4-1.43c-.08.73-.15,1.45-.19,2.13a4.91,4.91,0,0,0-3.94,3.07s-.66,2.76.5.74A3.85,3.85,0,0,1,5.2,63.25c0,.44,0,.87,0,1.3a5.73,5.73,0,0,0-2.35,3s-.88,3.72.68,1a6.32,6.32,0,0,1,1.82-2.05c1.23,10.28,8.3,13.58,8.3,13.58a26.79,26.79,0,0,0,4,1.85c4.2,7,13,16.55,29.75,16.68,11.36.08,25.14-5,35.53-16.25,8.15-8.17,17.62-23,17.62-47.59A2,2,0,0,0,98.92,32.79Z"/><path class="cls-1" d="M65,15.86C66.4,20,67.31,26,66.67,34.6c0,0,7,6.91,1.84,22.55a34.9,34.9,0,0,1-2.19,5.21A35.92,35.92,0,0,0,76,50.74c5-10.87,6.16-17,6.42-19.71h0a38.77,38.77,0,0,0-1.72-14.32,1.26,1.26,0,0,0-1.2-.85H77.63a52.23,52.23,0,0,0-.48-8,.76.76,0,0,0-.78-.65l-1.24,0A.75.75,0,0,0,74.4,8c.21,2.42.14,6,.09,7.82H71.92a57.71,57.71,0,0,0-.58-13.19.75.75,0,0,0-.88-.62l-1.64.29a.75.75,0,0,0-.61.87,63.15,63.15,0,0,1,.47,12.65Z"/><path class="cls-1" d="M97.52,34.59l-2-.32c.38-3.42.45-7.89.46-9.62a.75.75,0,0,0-.72-.76l-1.77-.09a.76.76,0,0,0-.8.79A48.68,48.68,0,0,1,92,33.7l-2.15-.34a34.94,34.94,0,0,0,.41-10.31.75.75,0,0,0-.76-.67l-1.69,0a.74.74,0,0,0-.74.81,39.83,39.83,0,0,1-.62,9.6l-2.72-.43c-1.17,4.92-3.66,13.69-7.59,20.12-4.77,8.25-10.66,11.7-10.92,11.85h0c-9,14.88-28,21.91-43,18.84,4.16,6.1,11.72,12.42,25.27,12.52,21.14.15,50.64-17.48,51.15-59.85A1.29,1.29,0,0,0,97.52,34.59Z"/><path class="cls-2" d="M80.66,16.71a1.26,1.26,0,0,0-1.2-.85H77.63a52.23,52.23,0,0,0-.48-8,.76.76,0,0,0-.78-.65l-1.24,0A.75.75,0,0,0,74.4,8c.21,2.42.14,6,.09,7.82H71.92a57.71,57.71,0,0,0-.58-13.19.75.75,0,0,0-.88-.62l-1.64.29a.75.75,0,0,0-.61.87,63.15,63.15,0,0,1,.47,12.65H65C66.4,20,67.31,26,66.67,34.6c0,0,7,6.91,1.84,22.55a35.21,35.21,0,0,1-2.21,5.23A35.84,35.84,0,0,0,76,50.74c5-10.87,6.16-17,6.42-19.71h0A38.77,38.77,0,0,0,80.66,16.71Z"/><ellipse class="cls-3" cx="14.39" cy="51.97" rx="2.01" ry="3.34"/><ellipse class="cls-3" cx="37.64" cy="52.3" rx="2.45" ry="4.06"/><path class="cls-3" d="M20.43,57.79l4.73-.11a1.24,1.24,0,0,1,1,2.06l-2.88,3.32a1.24,1.24,0,0,1-2-.19l-1.85-3.2A1.26,1.26,0,0,1,20.43,57.79Z"/><path class="cls-3" d="M91.21,39.54l3.27.43s-.12,4.31-.94,5.9l-3.35-.43A54.07,54.07,0,0,0,91.21,39.54Z"/><path class="cls-3" d="M85.23,41.25l2.74.37a34.7,34.7,0,0,1-2.5,8.61L82,49.79A37.61,37.61,0,0,0,85.23,41.25Z"/><path class="cls-3" d="M80.36,54.18l3.43.37a36.56,36.56,0,0,1-6.1,10.23l-4.18-.85S76.74,61.37,80.36,54.18Z"/><path class="cls-3" d="M88.81,49.53l3.74.52a25.31,25.31,0,0,1-1.61,5.17l-4.36-.62A32.75,32.75,0,0,0,88.81,49.53Z"/><path class="cls-3" d="M73.84,20.4h3.45s1.23,6.14.61,9l-3.42-.52A51.51,51.51,0,0,0,73.84,20.4Z"/><path class="cls-3" d="M74,31.82l3.73.69a38,38,0,0,1-1.33,5.72l-3.64-1.18A17.61,17.61,0,0,0,74,31.82Z"/><path class="cls-3" d="M48.92,62.51a4.7,4.7,0,0,1,3.41,2.95s.65,2.77-.51.75A3.21,3.21,0,0,0,48,64.52a1,1,0,0,1-.88-.19h0a1,1,0,0,1,.51-1.86A3.51,3.51,0,0,1,48.92,62.51Z"/><path class="cls-3" d="M51.18,69.38s.88,3.72-.69,1a5.12,5.12,0,0,0-5.05-2.9,1,1,0,0,1-.75-.23h0a1,1,0,0,1,.72-1.72A6.35,6.35,0,0,1,51.18,69.38Z"/><path class="cls-3" d="M54.18,61s2,3.08-.71,1.13a8.42,8.42,0,0,0-7.62-1,1.13,1.13,0,0,1-.68,0h0a1.12,1.12,0,0,1,0-2.15C47.9,58.19,51.83,57.78,54.18,61Z"/><path class="cls-3" d="M63.57,26.69c-.11-6.9-2.61-19.16-9.18-15.26-6.23,3.7-9.49,11.27-10.55,14.16a1.05,1.05,0,0,0,.79,1.4c.91.18,1.77.37,2.6.55.64-.27,1.32-1,1.36-2.71a.26.26,0,0,1,.48-.13,2.68,2.68,0,0,0,2.12,1.56c1.26,0,2.66-2.75,3.39-4.42a.26.26,0,0,1,.49.11c0,2,.15,5.36,1.17,5.36a4.68,4.68,0,0,0,2.76-1,.26.26,0,0,1,.4.3c-.5,1.28-1,3.23-.3,4.35,1.33.48,2.36.9,3.08,1.22a1,1,0,0,0,1.41-.92C63.59,30,63.59,28.28,63.57,26.69Z"/><path class="cls-3" d="M14.5,33.6c-.1-.22,0-.46.13-.32A1.94,1.94,0,0,0,16.2,34c.49-.1-.12-3.44-.51-5.37-.06-.27.11-.39.22-.15.69,1.56,1.93,4.11,2.55,4s.66-1,.72-1.74c0-.23.21-.17.26.08a7.89,7.89,0,0,0,.48,1.54,16.07,16.07,0,0,1,1.28-1c-2.44-6.06-8.45-11.22-11.63-13.92a.79.79,0,0,0-1.25.9,79.23,79.23,0,0,1,5,19.8c.07.58.77.65,1.1.17s.7-1,1.05-1.43A14.39,14.39,0,0,0,14.5,33.6Z"/></svg>